<svg id="Layer_1" data-name="Layer 1" xmlns="http://www.w3.org/2000/svg" viewBox="0 0 402.82 176.6"><title>Artboard 1 copy 14</title><polygon points="201.16 93.58 204.13 90.41 214.46 103.56 226.35 103.56 210.92 84.04 225.14 67.91 212.9 67.91 201.16 81.49 201.16 57.68 190.62 57.68 190.62 103.56 201.16 103.56 201.16 93.58"/><path d="M239.44,109.08a5.13,5.13,0,0,1-3,.78,14.35,14.35,0,0,1-4.32-.57v9.13a20.39,20.39,0,0,0,4.67.49c4,0,7.22-1.06,9.55-3.11a16.74,16.74,0,0,0,4.11-6.58l15.84-41.31H255.5l-8.77,24.76L237,67.91H226.29l15.2,37.35-.56,1.56A3.74,3.74,0,0,1,239.44,109.08Z"/><path d="M267.46,91.75a6.35,6.35,0,0,0-6.35,6.35v.09a6.28,6.28,0,0,0,6.29,6.29,6.16,6.16,0,0,0,2.5-.53,6.34,6.34,0,0,0-2.44-12.2Z"/><path d="M170.24,67.13a12.68,12.68,0,0,0-8.93,3.28l0-.21a3.32,3.32,0,0,1,.09-1.1h0l.07-.21.1-.32a4.26,4.26,0,0,0,.17-.54,1.9,1.9,0,0,0-1-2.39,3.48,3.48,0,0,0-1.7,0,2.33,2.33,0,0,0-1.1.6,2.54,2.54,0,0,0-.58,1.34c-1.66,7.39-1.07,11.87-1,19.17a136.22,136.22,0,0,1-.55,15.87l-.15.11.13.35a1.38,1.38,0,0,0,0,.28,1.8,1.8,0,0,0,.1.4,1.11,1.11,0,0,0,.59.6,1.85,1.85,0,0,0,.85.22h0a1.35,1.35,0,0,0,.73-.21,1.54,1.54,0,0,0,.78-1.28,2.83,2.83,0,0,0,0-.3v-.05a148.32,148.32,0,0,0,1.4-17.25q.12-3,.27-6l0-.55a4.46,4.46,0,0,1,1.25-1.06l0,0,.1,0c.29-.16.59-.31.89-.44a10.75,10.75,0,0,1,2-.64l.67-.13.09,0h.05a9.14,9.14,0,0,1,1.15-.08c4.17,0,6.51,2.55,6.51,6.72v20.38h10.54V81.92C183.89,72.65,178.94,67.13,170.24,67.13Z"/><path d="M120,91.91a21.34,21.34,0,0,0,2.86,8,7.62,7.62,0,0,0,7.14,3.9l1,0c8.79-.58,14.64-3.76,16.45-9A23.23,23.23,0,0,0,145,73.42a10.26,10.26,0,0,0-8.8-5c-5-.21-7.87,2.1-10,4.36-4.93,5.27-6,11-6.48,15.82v.11A21.83,21.83,0,0,0,120,91.91Zm9.81-17.19A11,11,0,0,1,136,72.05H136c1,0,3.2,1.46,4.13,2.75,4,5.53,4.71,11.65,2.26,19.28a8.5,8.5,0,0,1-2.94,3.69,13.44,13.44,0,0,1-10.79,2.4c-1-.2-1.93-1.66-2.87-4.31a25.27,25.27,0,0,1-1-5c-.11-.73-.21-1.47-.33-2.15A18.64,18.64,0,0,1,129.83,74.72Z"/><path d="M114.09,102.94c-.13-.49-.93-.76-1.61-.76l-16.24-.63,2.56-4.73c2.43-4.52,4.85-9,7.24-13.49l1-1.93c1.77-3.28,3.59-6.68,5.14-10.08l.11-.23c.41-.89,1-2.12.12-3a4.1,4.1,0,0,0-2.62-.88c-1.43-.09-3-.14-4.85-.14-1.24,0-2.49,0-3.73,0l-8.2.15a6.32,6.32,0,0,0-.76,0l-.42,0v.45l-.23-.45H91v.08a2.17,2.17,0,0,0-1,.54,1.13,1.13,0,0,0-.27.44,1,1,0,0,0,.1.63c.2.52,1.13.79,1.82.74l15.77.59c-.12.32-.23.63-.34.94a16.68,16.68,0,0,1-1.09,2.63C101.06,82.67,96,91.66,91,100.55c-.89,1.59-1.29,2.73-.52,3.51s2.53,1,4.93,1c2.16,0,4.35.08,6.53.08,2.44,0,4.93,0,7.38-.09a8.62,8.62,0,0,0,2.7-.65l.54-.19a2.37,2.37,0,0,0,1-.33C113.77,103.76,114.22,103.44,114.09,102.94Z"/><path d="M304.11,79.75l6.5-6.43a20.33,20.33,0,0,0-28.76-1.14,18.77,18.77,0,0,0,0,26.92,19.7,19.7,0,0,0,14,5.38,19.46,19.46,0,0,0,14.77-6.56l-6.5-6.43a11.16,11.16,0,0,1-8.27,3.65,9.11,9.11,0,0,1-6.63-2.68,9.2,9.2,0,0,1-2.71-6.8,9.4,9.4,0,0,1,2.67-6.84,9,9,0,0,1,6.67-2.71A11.15,11.15,0,0,1,304.11,79.75Z"/><polygon points="329.24 94.26 347.45 75.19 347.45 67.91 315.51 67.91 315.51 76.96 333.17 76.96 313.59 97.05 313.59 103.55 348.17 103.55 348.17 94.5 329.01 94.5 329.24 94.26"/></svg>